<svg width="134" height="106" viewBox="0 0 134 106" fill="none" xmlns="http://www.w3.org/2000/svg">
<path opacity="0.3" fill-rule="evenodd" clip-rule="evenodd" d="M28.9635 52.6693H31.4062C38.0365 52.6693 43.9978 55.1992 49.2904 60.2591C54.5829 65.319 57.2292 71.6293 57.2292 79.1901C57.2292 86.6346 54.5829 92.7704 49.2904 97.5977C43.9978 102.425 37.4549 104.839 29.6615 104.839C21.1701 104.839 14.1038 101.436 8.46224 94.6315C2.82072 87.8268 0 78.1433 0 65.5807C0 54.065 2.47176 43.2765 7.41536 33.2148C12.359 23.1532 18.4075 15.1854 25.5612 9.3112C32.7149 3.43704 39.0833 0.5 44.6667 0.5C48.3889 0.5 51.2969 1.60502 53.3906 3.8151C55.4844 6.02518 56.5312 8.87498 56.5312 12.3646C56.5312 17.4827 54.263 21.263 49.7266 23.7057C43.5616 27.079 38.6762 31.0338 35.0703 35.5703C31.4644 40.1068 29.4288 45.8064 28.9635 52.6693ZM106.083 52.6693H108.352C114.865 52.6693 120.769 55.1992 126.061 60.2591C131.354 65.319 134 71.6293 134 79.1901C134 86.5183 131.354 92.6831 126.061 97.6849C120.769 102.687 114.226 105.188 106.432 105.188C97.8246 105.188 90.7292 101.698 85.1458 94.7188C79.5625 87.7395 76.7708 78.027 76.7708 65.5807C76.7708 56.6241 78.2248 48.191 81.1328 40.2812C84.0408 32.3715 87.7921 25.4796 92.3867 19.6055C96.9814 13.7313 101.925 9.07858 107.217 5.64714C112.51 2.21569 117.25 0.5 121.438 0.5C125.276 0.5 128.213 1.57594 130.249 3.72786C132.284 5.87979 133.302 8.75866 133.302 12.3646C133.302 17.599 131.034 21.3793 126.497 23.7057C120.1 27.3116 115.273 31.2955 112.016 35.6576C108.759 40.0196 106.781 45.6901 106.083 52.6693Z" fill="white"/>
</svg>
