<svg width="374" height="332" viewBox="0 0 374 332" fill="none" xmlns="http://www.w3.org/2000/svg">
<rect x="188" y="36" width="103" height="103" rx="10" fill="white"/>
<path d="M259.3 74.2H219.7C218.816 74.2 218.1 74.9163 218.1 75.8V109C218.1 109.884 218.816 110.6 219.7 110.6H226.8V121.8C226.8 124.396 228.904 126.5 231.5 126.5C234.096 126.5 236.2 124.396 236.2 121.8V110.7H242.8V121.9C242.8 124.496 244.904 126.6 247.5 126.6C248.746 126.6 249.942 126.105 250.823 125.223C251.705 124.342 252.2 123.146 252.2 121.9V110.7H259.4C260.284 110.7 261 109.984 261 109.1V75.8C261 74.9163 260.284 74.2 259.4 74.2H259.3Z" fill="#85C808"/>
<path d="M211.4 74.2C210.153 74.2 208.958 74.6951 208.077 75.5765C207.195 76.458 206.7 77.6534 206.7 78.9V98C206.7 99.2465 207.195 100.442 208.077 101.323C208.958 102.205 210.153 102.7 211.4 102.7C212.647 102.7 213.842 102.205 214.723 101.323C215.605 100.442 216.1 99.2465 216.1 98V78.9C216.1 77.6534 215.605 76.458 214.723 75.5765C213.842 74.6951 212.647 74.2 211.4 74.2V74.2Z" fill="#85C808"/>
<path d="M267.6 74.2C265.004 74.2 262.9 76.3042 262.9 78.9V98C262.9 99.2465 263.395 100.442 264.277 101.323C265.158 102.205 266.353 102.7 267.6 102.7C268.847 102.7 270.042 102.205 270.923 101.323C271.805 100.442 272.3 99.2465 272.3 98V78.9C272.3 77.6534 271.805 76.458 270.923 75.5765C270.042 74.6951 268.847 74.2 267.6 74.2V74.2Z" fill="#85C808"/>
<path fill-rule="evenodd" clip-rule="evenodd" d="M220 71.9H258.9C259.382 71.9085 259.842 71.6994 260.152 71.3308C260.463 70.9622 260.59 70.4733 260.5 70C259.221 63.9441 255.395 58.7331 250 55.7L253.3 49.7C253.443 49.432 253.432 49.1082 253.271 48.8504C253.111 48.5927 252.825 48.4402 252.521 48.4504C252.218 48.4606 251.943 48.632 251.8 48.9L248.4 54.9C242.661 52.2366 236.039 52.2366 230.3 54.9L227 48.9C226.857 48.632 226.582 48.4606 226.279 48.4504C225.975 48.4402 225.689 48.5927 225.529 48.8504C225.368 49.1082 225.357 49.432 225.5 49.7L228.8 55.7C223.443 58.7546 219.655 63.9624 218.4 70C218.213 70.8549 218.748 71.7014 219.6 71.9H220ZM251.1 63C251.1 63.9941 250.294 64.8 249.3 64.8C248.306 64.8 247.5 63.9941 247.5 63C247.5 62.0058 248.306 61.2 249.3 61.2C250.294 61.2 251.1 62.0058 251.1 63ZM231.5 63C231.5 62.0058 230.694 61.2 229.7 61.2C228.706 61.2 227.9 62.0058 227.9 63C227.9 63.9941 228.706 64.8 229.7 64.8C230.694 64.8 231.5 63.9941 231.5 63Z" fill="#85C808"/>
<g filter="url(#filter0_d)">
<rect x="42" y="15" width="124" height="124" rx="10" fill="white"/>
<path fill-rule="evenodd" clip-rule="evenodd" d="M120 38C120.344 42.498 118.908 46.9511 116 50.4C113.3 53.7 108.8 56.3 104.4 56C103.8 51.5 106 46.8 108.5 43.9C111.44 40.5379 115.554 38.4271 120 38ZM133.948 64.682C132.521 65.6676 125.709 70.3713 125.8 79.4C125.817 86.2952 129.949 92.5141 136.3 95.2C135.042 99.1399 133.223 102.878 130.9 106.3C127.7 111.1 124.2 115.8 119 115.9C116.465 115.949 114.761 115.213 112.986 114.446C111.12 113.64 109.175 112.8 106.1 112.8C102.907 112.8 100.931 113.65 99.0133 114.475C97.3274 115.2 95.6857 115.906 93.3 116C88.2 116.2 84.3 110.8 81 106.1C74.2 96.5 69.1 78.8 76 66.8C79.2689 60.9285 85.383 57.2069 92.1 57C94.9958 56.9432 97.7626 58.0471 100.181 59.0119C102.022 59.7462 103.66 60.4 105 60.4C106.207 60.4 107.824 59.7632 109.708 59.0209C112.662 57.8569 116.275 56.4336 120 56.8C125.675 57.0105 130.927 59.8583 134.2 64.5C134.174 64.5264 134.086 64.5869 133.948 64.682Z" fill="#AAAAAA"/>
</g>
<g filter="url(#filter1_d)">
<rect x="123" y="155" width="133" height="132" rx="10" fill="white"/>
</g>
<path fill-rule="evenodd" clip-rule="evenodd" d="M222 193.8C221.996 190.359 219.71 187.338 216.4 186.4C216.4 186.4 197.9 183.6 189.8 182.6C181.7 181.6 182.2 189.4 182.2 189.4C182.2 189.4 184 246.7 184.2 253.7C184.4 260.7 192.3 260.8 192.3 260.8L220.2 256C225.3 255 225.5 248.7 225.5 248.7C225.5 248.7 222.3 200.4 222 193.8ZM165.9 234.009L166 234H165.9L165.9 234.009ZM165.9 234.009L161.3 234.4C160.245 234.595 159.16 234.281 158.373 233.553C157.585 232.824 157.187 231.767 157.3 230.7C157.2 227.6 156.8 209.9 156.8 209.9C156.8 209.9 156.5 206.6 160.5 206.9L165.4 207.2C165.3 204.3 165.3 201.7 165.3 199.8L158.7 199.2C153.5 198.6 153.8 203 153.8 203C153.8 203 154.4 235.4 154.6 239.4C154.8 243.4 159.8 243.4 159.8 243.4L166.1 242.7C166.1 240.661 166.028 238.261 165.945 235.5C165.93 235.014 165.915 234.517 165.9 234.009ZM172.1 233.6L174.9 233.4C178.6 232.8 178.3 229.9 178.3 229.9C178.3 229.9 178.3 213.6 178.2 210.7C178.108 209.153 177.009 207.851 175.5 207.5L171.6 207.3C171.5 206 171.5 205.3 171.5 205.2C171.43 204.322 171.764 203.46 172.405 202.857C173.047 202.254 173.928 201.976 174.8 202.1H175.3L179.7 202.5C180.074 203.102 180.281 203.792 180.3 204.5C180.5 208.2 181.1 237.6 181.1 237.6C181.072 237.94 181.005 238.276 180.9 238.6L176.2 239.1H175.8C174.1 239.1 172.2 238.4 172.1 234.9V233.6ZM195.1 244.5L215.8 242.4H215.7C221.5 241.4 221 236.8 221 236.8C221 236.8 219.3 208.8 219.1 203.8C219.111 201.204 217.396 198.916 214.9 198.2L193.4 196.6C187.2 196.1 187.6 201.8 187.6 201.8C187.6 201.8 188.8 232.7 188.9 238.1C189.1 245.4 195.1 244.5 195.1 244.5ZM195 243.5L203 242.7C202.6 234.6 201.2 203 201 198.4L193.4 197.8H192.8C191.689 197.721 190.597 198.122 189.8 198.9C189.106 199.742 188.75 200.811 188.8 201.9V202.4L194.5 202.9C196.622 203.435 198.132 205.312 198.2 207.5C198.4 211.6 199.4 234 199.4 234C199.4 234 199.8 237.8 194.8 238.6L190.2 239.1C190.5 242.9 192.7 243.7 194.6 243.7H195.1L195 243.5ZM176.3 240.2L182.8 239.6C182.9 244.8 183.1 249.2 183.3 251.8L174.5 252.9C174.5 252.9 167.6 253 167.4 247.3C167.2 241.6 166.4 195.6 166.4 195.6C166.4 195.6 165.9 189.4 173 190.2L181.3 191.1C181.3 193.1 181.4 196.9 181.6 201.7L175.4 201.2C170 200.9 170.4 205.5 170.4 205.5C170.4 205.5 170.9 230.6 171 235C171.1 241 176.3 240.2 176.3 240.2Z" fill="#010101"/>
<rect y="155" width="104" height="104" rx="10" fill="white"/>
<path d="M52.5 191.9C44.1605 191.9 37.4 198.661 37.4 207C37.4 215.34 44.1605 222.1 52.5 222.1C60.8395 222.1 67.6 215.34 67.6 207C67.6 202.995 66.0091 199.155 63.1773 196.323C60.3455 193.491 56.5048 191.9 52.5 191.9Z" fill="#478AFF"/>
<path d="M74.1 193.3C77.9108 193.3 81 190.211 81 186.4C81 182.589 77.9108 179.5 74.1 179.5C70.2892 179.5 67.2 182.589 67.2 186.4C67.2 190.211 70.2892 193.3 74.1 193.3Z" fill="#478AFF"/>
<path d="M82.6 193.3L82.3 192.7L81.9 193.2C80.7935 194.49 79.385 195.486 77.8 196.1L77.4 196.3L77.6 196.7C82.6241 208.702 78.3737 222.58 67.49 229.711C56.6064 236.841 42.1855 235.195 33.1888 225.795C24.192 216.395 23.1787 201.916 30.7785 191.355C38.3782 180.794 52.4293 177.155 64.2 182.7L64.6 182.9L64.8 182.5C65.4846 180.93 66.5501 179.555 67.9 178.5L68.4 178.1L67.8 177.8C63.1073 175.355 57.8914 174.085 52.6 174.1C37.9072 174.106 24.9771 183.797 20.8479 197.898C16.7188 211.998 22.379 227.133 34.7476 235.064C47.1162 242.995 63.2324 241.823 74.3235 232.186C85.4145 222.549 88.8257 206.755 82.7 193.4L82.6 193.3Z" fill="#478AFF"/>
<rect x="276" y="155" width="98" height="98" rx="10" fill="white"/>
<path fill-rule="evenodd" clip-rule="evenodd" d="M294.3 204C294.3 187.045 308.045 173.3 325 173.3C341.955 173.3 355.7 187.045 355.7 204C355.7 220.955 341.955 234.7 325 234.7C308.045 234.7 294.3 220.955 294.3 204ZM347 194.15C346.325 193.875 345.65 193.6 344.9 193.6V193.7C343.705 193.671 342.517 193.875 341.4 194.3C343 196.2 348 196.2 349.1 194.7C348.35 194.7 347.675 194.425 347 194.15ZM298.2 204C298.155 202.324 298.289 200.648 298.6 199C298.814 199 299.029 199.115 299.228 199.222C299.4 199.314 299.561 199.4 299.7 199.4C299.924 199.611 300.065 199.894 300.1 200.2C300.192 201.209 300.991 202.008 302 202.1C303.684 202.317 304.778 203.214 305.859 204.099C306.768 204.844 307.667 205.58 308.9 205.9C309.663 206.282 309.334 206.937 308.955 207.691L308.9 207.8C306.6 210.9 308.5 213.2 310.4 215.1C312.091 216.791 312.277 217.928 312.58 219.78C312.617 220.008 312.656 220.247 312.7 220.5C312.644 223.371 313.154 226.225 314.2 228.9C304.7 224.3 298.2 215.1 298.2 204ZM317 229.7C319.597 230.463 322.293 230.833 325 230.8L324.8 230.4C332.108 230.481 339.099 227.422 344 222C343.548 221.569 343.175 221.061 342.9 220.5C342.771 220.229 342.636 219.959 342.5 219.687C341.483 217.648 340.429 215.535 341.4 212.8C341.655 212.014 341.505 211.154 341 210.5C341 210.361 340.914 210.2 340.821 210.028C340.715 209.829 340.6 209.614 340.6 209.4C339.4 206.3 339.1 206.3 336 206.7C332.9 207.1 331 204.4 331 201.7C331 199.58 331.987 198.199 333.137 196.591C333.451 196.151 333.778 195.694 334.1 195.2C334.223 195.077 334.459 195.068 334.693 195.058C335.219 195.037 335.731 195.016 334.9 193.7C333.7 191.8 334.5 190.7 336.8 190.3C336.7 190 336.65 189.68 336.601 189.37C336.456 188.443 336.324 187.6 334.9 187.6C334.9 186.4 335.3 185.3 336.4 185.3C337.184 185.3 337.409 185.707 337.619 186.085C337.703 186.237 337.785 186.385 337.9 186.5C338.3 186.9 339 187.3 339.4 186.9C339.516 186.784 339.69 186.744 339.853 186.706C340.252 186.614 340.582 186.537 339.8 185.4C339.432 184.967 339.308 184.378 339.469 183.834C339.631 183.289 340.056 182.863 340.6 182.7C340.8 182.7 340.9 182.6 341 182.5C341.1 182.4 341.2 182.3 341.4 182.3C339.27 180.746 336.952 179.469 334.5 178.5C334.347 178.653 334.194 178.747 334.064 178.828C333.853 178.958 333.7 179.053 333.7 179.3C332.811 180.639 331.457 181.601 329.9 182C328.8 182.4 326.9 183.1 326.5 183.9C326.1 184.7 325.4 184.7 324.6 184.3H324.5C324.149 184.148 323.876 183.859 323.744 183.5C323.611 183.141 323.632 182.744 323.8 182.4C324.6 180.5 324.2 179.4 321.9 179C323.835 178.087 325.888 177.448 328 177.1H324.9C319.576 177.047 314.367 178.655 310 181.7C312.025 181.67 314.014 181.155 315.8 180.2C316.523 179.883 317.312 179.746 318.1 179.8C319.524 179.809 320.778 180.74 321.2 182.1C321.6 183.3 320 184 318.9 184.4C318.794 184.4 318.692 184.442 318.617 184.517C318.542 184.592 318.5 184.694 318.5 184.8C320 185.2 320.8 188.6 320.8 189.4C320.8 190.2 320.4 190.5 319.7 190.2C319.328 190.041 319.013 189.74 318.754 189.494C318.525 189.276 318.341 189.1 318.2 189.1C317.01 189.926 315.874 190.828 314.8 191.8C312.111 193.342 310.056 195.786 309 198.7C308.3 196.8 306.7 196.8 305.2 197.2C304.534 197.501 304.001 198.034 303.7 198.7C303.7 198.881 303.685 199.078 303.669 199.278C303.615 199.962 303.558 200.691 304.1 201C304.8 201.4 305.2 201 305.6 200.6C305.891 200.312 306.293 200.166 306.7 200.2C306.471 201.059 306.996 201.918 307.487 202.721C307.853 203.32 308.2 203.887 308.2 204.4C308.2 205.6 308.2 205.9 310.1 204.8C312 203.7 314.3 204.4 316.6 205.6C317.511 206.075 318.296 206.77 319.105 207.485C320.339 208.577 321.627 209.717 323.5 210.2C325.1 210.5 325.4 211.7 324.3 213.6C323.856 214.438 323.584 215.356 323.5 216.3C323.393 217.368 322.85 218.345 322 219C320.111 221.662 318.439 224.471 317 227.4C316.609 228.117 316.609 228.983 317 229.7Z" fill="#5CA4FF"/>
<defs>
<filter id="filter0_d" x="27" y="0" width="184" height="184" filterUnits="userSpaceOnUse" color-interpolation-filters="sRGB">
<feFlood flood-opacity="0" result="BackgroundImageFix"/>
<feColorMatrix in="SourceAlpha" type="matrix" values="0 0 0 0 0 0 0 0 0 0 0 0 0 0 0 0 0 0 127 0"/>
<feOffset dx="15" dy="15"/>
<feGaussianBlur stdDeviation="15"/>
<feColorMatrix type="matrix" values="0 0 0 0 0.792157 0 0 0 0 0.792157 0 0 0 0 0.792157 0 0 0 0.4 0"/>
<feBlend mode="normal" in2="BackgroundImageFix" result="effect1_dropShadow"/>
<feBlend mode="normal" in="SourceGraphic" in2="effect1_dropShadow" result="shape"/>
</filter>
<filter id="filter1_d" x="108" y="140" width="193" height="192" filterUnits="userSpaceOnUse" color-interpolation-filters="sRGB">
<feFlood flood-opacity="0" result="BackgroundImageFix"/>
<feColorMatrix in="SourceAlpha" type="matrix" values="0 0 0 0 0 0 0 0 0 0 0 0 0 0 0 0 0 0 127 0"/>
<feOffset dx="15" dy="15"/>
<feGaussianBlur stdDeviation="15"/>
<feColorMatrix type="matrix" values="0 0 0 0 0.792157 0 0 0 0 0.792157 0 0 0 0 0.792157 0 0 0 0.4 0"/>
<feBlend mode="normal" in2="BackgroundImageFix" result="effect1_dropShadow"/>
<feBlend mode="normal" in="SourceGraphic" in2="effect1_dropShadow" result="shape"/>
</filter>
</defs>
</svg>
