<svg width="64" height="64" viewBox="0 0 64 64" fill="none" xmlns="http://www.w3.org/2000/svg">
<path d="M24.9135 7.56945L1.50014 30.9819C1.49691 30.9861 1.49691 30.9897 1.49322 30.9934C1.37701 31.1133 1.2834 31.2522 1.21838 31.4085C1.15381 31.5634 1.12015 31.7299 1.11923 31.8968C1.11923 31.9005 1.11784 31.9028 1.11738 31.9061C1.1183 32.0767 1.15289 32.245 1.21791 32.405C1.28478 32.5641 1.37978 32.708 1.49922 32.8284L24.914 56.2404C25.4236 56.75 26.249 56.75 26.7586 56.2404C27.0136 55.9854 27.1404 55.6519 27.1404 55.319C27.1404 54.9851 27.0136 54.6508 26.7586 54.3967L5.57169 33.2098L61.2305 33.2098C61.9509 33.2098 62.5356 32.625 62.5356 31.9047C62.5351 31.1839 61.9509 30.6015 61.2301 30.601L5.57031 30.601L26.7582 9.41223C27.0127 9.1586 27.14 8.82472 27.1395 8.4913C27.1395 8.1565 27.0127 7.82401 26.7577 7.56899C26.249 7.06033 25.424 7.0608 24.9135 7.56945Z" fill="#5ECADF"/>
</svg>
