<svg width="129" height="44" viewBox="0 0 129 44" fill="none" xmlns="http://www.w3.org/2000/svg">
<path d="M59.142 26.426C59.5233 26.426 59.8387 26.5507 60.088 26.8C60.352 27.0347 60.484 27.3427 60.484 27.724C60.484 28.0907 60.352 28.3987 60.088 28.648C59.8387 28.8827 59.5233 29 59.142 29H51.992C51.6107 29 51.288 28.8753 51.024 28.626C50.7747 28.362 50.65 28.0393 50.65 27.658V14.942C50.65 14.5607 50.782 14.2453 51.046 13.996C51.31 13.732 51.6473 13.6 52.058 13.6C52.4247 13.6 52.74 13.732 53.004 13.996C53.268 14.2453 53.4 14.5607 53.4 14.942V26.426H59.142ZM78.6567 21.3C78.6567 22.752 78.334 24.0867 77.6887 25.304C77.0433 26.5067 76.1487 27.46 75.0047 28.164C73.8753 28.868 72.5993 29.22 71.1767 29.22C69.754 29.22 68.4707 28.868 67.3267 28.164C66.1973 27.46 65.31 26.5067 64.6647 25.304C64.034 24.0867 63.7187 22.752 63.7187 21.3C63.7187 19.848 64.034 18.5207 64.6647 17.318C65.31 16.1007 66.1973 15.14 67.3267 14.436C68.4707 13.732 69.754 13.38 71.1767 13.38C72.5993 13.38 73.8753 13.732 75.0047 14.436C76.1487 15.14 77.0433 16.1007 77.6887 17.318C78.334 18.5207 78.6567 19.848 78.6567 21.3ZM75.7967 21.3C75.7967 20.3173 75.5987 19.43 75.2027 18.638C74.8067 17.8313 74.2567 17.1933 73.5527 16.724C72.8487 16.2547 72.0567 16.02 71.1767 16.02C70.282 16.02 69.4827 16.2547 68.7787 16.724C68.0893 17.1787 67.5467 17.8093 67.1507 18.616C66.7693 19.4227 66.5787 20.3173 66.5787 21.3C66.5787 22.2827 66.7693 23.1773 67.1507 23.984C67.5467 24.7907 68.0893 25.4287 68.7787 25.898C69.4827 26.3527 70.282 26.58 71.1767 26.58C72.0567 26.58 72.8487 26.3453 73.5527 25.876C74.2567 25.4067 74.8067 24.776 75.2027 23.984C75.5987 23.1773 75.7967 22.2827 75.7967 21.3ZM94.234 20.684C94.6154 20.684 94.9307 20.816 95.18 21.08C95.4294 21.3293 95.554 21.6447 95.554 22.026V26.69C95.554 27.2033 95.3267 27.5993 94.872 27.878C93.4347 28.7727 91.858 29.22 90.142 29.22C88.69 29.22 87.348 28.868 86.116 28.164C84.884 27.4453 83.9087 26.4847 83.19 25.282C82.4714 24.0647 82.112 22.7373 82.112 21.3C82.112 19.8627 82.4714 18.5427 83.19 17.34C83.9087 16.1227 84.884 15.162 86.116 14.458C87.348 13.7393 88.69 13.38 90.142 13.38C91.594 13.38 92.8554 13.6733 93.926 14.26C94.146 14.3773 94.3074 14.5313 94.41 14.722C94.5274 14.9127 94.586 15.118 94.586 15.338C94.586 15.7047 94.4614 16.0273 94.212 16.306C93.9774 16.57 93.684 16.702 93.332 16.702C93.112 16.702 92.87 16.6433 92.606 16.526C91.814 16.1887 90.9927 16.02 90.142 16.02C89.2034 16.02 88.338 16.262 87.546 16.746C86.754 17.2153 86.1234 17.8533 85.654 18.66C85.1994 19.4667 84.972 20.3467 84.972 21.3C84.972 22.2533 85.1994 23.1333 85.654 23.94C86.1234 24.7467 86.754 25.392 87.546 25.876C88.338 26.3453 89.2034 26.58 90.142 26.58C90.5527 26.58 90.9927 26.5433 91.462 26.47C91.9314 26.3967 92.342 26.3013 92.694 26.184V23.324H90.626C90.2447 23.324 89.922 23.1993 89.658 22.95C89.4087 22.7007 89.284 22.3853 89.284 22.004C89.284 21.6227 89.4087 21.3073 89.658 21.058C89.922 20.8087 90.2447 20.684 90.626 20.684H94.234ZM114.068 21.3C114.068 22.752 113.746 24.0867 113.1 25.304C112.455 26.5067 111.56 27.46 110.416 28.164C109.287 28.868 108.011 29.22 106.588 29.22C105.166 29.22 103.882 28.868 102.738 28.164C101.609 27.46 100.722 26.5067 100.076 25.304C99.4457 24.0867 99.1304 22.752 99.1304 21.3C99.1304 19.848 99.4457 18.5207 100.076 17.318C100.722 16.1007 101.609 15.14 102.738 14.436C103.882 13.732 105.166 13.38 106.588 13.38C108.011 13.38 109.287 13.732 110.416 14.436C111.56 15.14 112.455 16.1007 113.1 17.318C113.746 18.5207 114.068 19.848 114.068 21.3ZM111.208 21.3C111.208 20.3173 111.01 19.43 110.614 18.638C110.218 17.8313 109.668 17.1933 108.964 16.724C108.26 16.2547 107.468 16.02 106.588 16.02C105.694 16.02 104.894 16.2547 104.19 16.724C103.501 17.1787 102.958 17.8093 102.562 18.616C102.181 19.4227 101.99 20.3173 101.99 21.3C101.99 22.2827 102.181 23.1773 102.562 23.984C102.958 24.7907 103.501 25.4287 104.19 25.898C104.894 26.3527 105.694 26.58 106.588 26.58C107.468 26.58 108.26 26.3453 108.964 25.876C109.668 25.4067 110.218 24.776 110.614 23.984C111.01 23.1773 111.208 22.2827 111.208 21.3Z" fill="#328CC1"/>
<rect width="41" height="41" rx="10" fill="#328CC1"/>
<path fill-rule="evenodd" clip-rule="evenodd" d="M20.5 31C26.299 31 31 26.299 31 20.5C31 14.701 26.299 10 20.5 10C14.701 10 10 14.701 10 20.5C10 26.299 14.701 31 20.5 31Z" fill="white"/>
</svg>
