<svg width="1440" height="283" viewBox="0 0 1440 283" fill="none" xmlns="http://www.w3.org/2000/svg">
<path d="M198.712 52.5693C344.631 222.508 646.454 173.557 863.307 92.9921C993.361 44.6747 1156.9 35.0966 1258.08 92.9921C1292.32 112.585 1411.52 99.8581 1441.76 148.991C1449.94 162.288 1456.89 173.668 1462.61 183.13C1465.47 187.857 1463.95 194.005 1459.22 196.861C1458.46 197.322 1457.64 197.679 1456.78 197.922L1156.9 283L244.546 240.104L8.84512 212.678C3.35929 212.039 -0.570378 207.075 0.0679677 201.589C0.104989 201.271 0.157275 200.954 0.224644 200.641C43.7194 -1.52505 109.882 -50.8823 198.712 52.5693Z" fill="white"/>
</svg>
