<svg width="64" height="64" viewBox="0 0 64 64" fill="none" xmlns="http://www.w3.org/2000/svg">
<path d="M38.7261 56.0702L62.1395 32.6577C62.1427 32.6536 62.1427 32.6499 62.1464 32.6462C62.2626 32.5263 62.3562 32.3875 62.4212 32.2312C62.4858 32.0762 62.5195 31.9097 62.5204 31.7428C62.5204 31.7391 62.5218 31.7368 62.5222 31.7336C62.5213 31.563 62.4867 31.3946 62.4217 31.2346C62.3548 31.0755 62.2598 30.9316 62.1404 30.8113L38.7256 7.39927C38.2161 6.88969 37.3906 6.88969 36.881 7.39927C36.626 7.65429 36.4992 7.98771 36.4992 8.32066C36.4992 8.65454 36.626 8.98888 36.881 9.24297L58.0679 30.4299L2.40909 30.4299C1.68877 30.4299 1.10402 31.0146 1.10402 31.735C1.10448 32.4558 1.68877 33.0382 2.40955 33.0387L58.0693 33.0387L36.8815 54.2274C36.6269 54.4811 36.4996 54.8149 36.5001 55.1483C36.5001 55.4831 36.6269 55.8156 36.8819 56.0707C37.3906 56.5793 38.2156 56.5789 38.7261 56.0702Z" fill="#5ECADF"/>
</svg>
